<svg width="30" height="24" viewBox="0 0 30 24" fill="none" xmlns="http://www.w3.org/2000/svg">
<path d="M29.317 2.76022C28.2733 3.22762 27.1522 3.54344 25.9735 3.68618C27.1759 2.95855 28.0984 1.80393 28.5333 0.429507C27.4084 1.10409 26.1623 1.59423 24.8361 1.85699C23.7737 0.715003 22.2614 0 20.5865 0C17.3718 0 14.7645 2.63515 14.7645 5.88678C14.7645 6.3466 14.817 6.7938 14.9145 7.22583C10.0737 6.97949 5.78532 4.63615 2.91308 1.07629C2.41312 1.94794 2.12565 2.95855 2.12565 4.03484C2.12565 6.07627 3.1543 7.87893 4.71542 8.93375C3.7605 8.90217 2.86308 8.63815 2.07815 8.19727V8.27307C2.07815 11.1242 4.08422 13.503 6.74899 14.0436C6.25903 14.1775 5.74533 14.2483 5.21537 14.2483C4.84041 14.2483 4.47419 14.2129 4.11922 14.1447C4.8604 16.4817 7.01021 18.1846 9.55874 18.2301C7.56517 19.8091 5.05414 20.7503 2.32688 20.7503C1.85692 20.7503 1.39321 20.7225 0.937 20.6681C3.51427 22.3394 6.574 23.3121 9.86121 23.3121C20.5728 23.3121 26.4285 14.3455 26.4285 6.56894C26.4285 6.31628 26.4223 6.06111 26.411 5.80846C27.5484 4.97723 28.5358 3.94262 29.3145 2.76401L29.317 2.76022Z" fill="#1DA1F2"/>
</svg>
